<?xml version="1.0" encoding="iso-8859-1"?>
<!-- Generator: Adobe Illustrator 16.0.0, SVG Export Plug-In . SVG Version: 6.00 Build 0)  -->
<!DOCTYPE svg PUBLIC "-//W3C//DTD SVG 1.1//EN" "http://www.w3.org/Graphics/SVG/1.1/DTD/svg11.dtd">
<svg version="1.1" id="Capa_1" xmlns="http://www.w3.org/2000/svg" xmlns:xlink="http://www.w3.org/1999/xlink" x="0px" y="0px"
	 width="106.048px" height="106.048px" viewBox="0 0 106.048 106.048" style="enable-background:new 0 0 106.048 106.048;"
	 xml:space="preserve">
<g>
	<path style="fill:#010002;" d="M56.224,32.73c0-2.868,2.413-5.191,5.37-5.191c2.951,0,5.364,2.323,5.364,5.191
		c0,2.869-2.413,5.191-5.364,5.191C58.637,37.917,56.224,35.6,56.224,32.73z M0,84.838V21.209C0,9.543,9.543,0,21.209,0h63.628
		c11.667,0,21.21,9.543,21.21,21.209v63.629c0,11.666-9.543,21.21-21.21,21.21H21.209C9.543,106.048,0,96.504,0,84.838z
		 M33.601,31.41c0,3.648,1.173,7.021,3.146,9.87c-1.269,1.144-2.069,2.734-2.069,4.51c0,2.933,2.175,5.287,5.069,6.009v2.188
		c0,3.78,3.097,6.887,6.887,6.887h12.77c3.79,0,6.887-3.107,6.887-6.887v-2.198c2.874-0.722,5.044-3.076,5.044-5.999
		c0-1.766-0.787-3.355-2.051-4.5c1.979-2.853,3.153-6.232,3.153-9.88c0-10.02-8.704-18.154-19.423-18.154
		C42.297,13.256,33.601,21.391,33.601,31.41z M44.392,74.705L34.253,78.92c-0.036-0.099-0.025-0.207-0.062-0.311
		c-1.046-2.46-3.873-3.609-6.333-2.568c-2.47,1.024-3.609,3.867-2.582,6.332c0.608,1.414,1.823,2.33,3.203,2.709
		c-0.678,1.252-0.885,2.76-0.287,4.178c1.046,2.465,3.871,3.625,6.333,2.59c2.47-1.047,3.615-3.889,2.571-6.349
		c-0.039-0.104-0.121-0.161-0.176-0.259l16.058-6.68l15.85,7.125c-0.041,0.104-0.145,0.155-0.187,0.264
		c-1.118,2.429-0.041,5.297,2.403,6.405c2.423,1.104,5.292,0.036,6.39-2.397c0.652-1.403,0.486-2.915-0.16-4.189
		c1.393-0.326,2.625-1.211,3.277-2.609c1.108-2.443,0.041-5.303-2.402-6.41c-2.424-1.108-5.282-0.036-6.4,2.393
		c-0.052,0.104-0.041,0.212-0.072,0.311l-10.015-4.506l10.134-4.209c0.036,0.098,0.016,0.212,0.062,0.315
		c1.046,2.46,3.874,3.609,6.333,2.563c2.47-1.041,3.609-3.868,2.579-6.322c-0.606-1.439-1.823-2.341-3.211-2.714
		c0.694-1.253,0.896-2.765,0.301-4.184c-1.046-2.476-3.873-3.62-6.338-2.579c-2.465,1.036-3.614,3.863-2.579,6.338
		c0.052,0.109,0.135,0.161,0.187,0.27l-16.042,6.675L37.223,63.96c0.037-0.088,0.138-0.146,0.176-0.249
		c1.119-2.434,0.046-5.302-2.387-6.41c-2.434-1.098-5.302-0.036-6.405,2.397c-0.647,1.403-0.481,2.915,0.176,4.184
		c-1.39,0.348-2.635,1.218-3.277,2.62c-1.103,2.434-0.036,5.303,2.384,6.411c2.437,1.103,5.302,0.03,6.406-2.397
		c0.049-0.099,0.039-0.213,0.075-0.311L44.392,74.705z M53.365,45.58l5.271,2.421l-5.214-8.811l-5.403,8.986L53.365,45.58z
		 M44.454,37.917c2.959,0,5.367-2.322,5.367-5.191c0-2.869-2.408-5.191-5.367-5.191c-2.952,0-5.375,2.322-5.375,5.191
		C39.079,35.594,41.502,37.917,44.454,37.917z"/>
</g>
<g>
</g>
<g>
</g>
<g>
</g>
<g>
</g>
<g>
</g>
<g>
</g>
<g>
</g>
<g>
</g>
<g>
</g>
<g>
</g>
<g>
</g>
<g>
</g>
<g>
</g>
<g>
</g>
<g>
</g>
</svg>
