<?xml version="1.0" standalone="no"?>
<!DOCTYPE svg PUBLIC "-//W3C//DTD SVG 20010904//EN"
 "http://www.w3.org/TR/2001/REC-SVG-20010904/DTD/svg10.dtd">
<svg version="1.0" xmlns="http://www.w3.org/2000/svg"
 width="1024.000000pt" height="1024.000000pt" viewBox="0 0 1024.000000 1024.000000"
 preserveAspectRatio="xMidYMid meet">
<metadata>
Created by potrace 1.16, written by Peter Selinger 2001-2019
</metadata>
<g transform="translate(0.000000,1024.000000) scale(0.100000,-0.100000)"
fill="#000000" stroke="none">
<path d="M4 5120 l-2 -5120 5119 0 5119 0 0 5120 0 5120 -5117 0 -5118 0 -1
-5120z m5218 4859 c2 -6 25 -13 50 -16 28 -3 54 -13 64 -24 15 -17 33 -19 139
-19 132 0 138 -2 128 -53 -4 -22 -2 -27 16 -27 12 0 21 6 21 16 0 8 5 12 10 9
6 -3 10 2 10 11 0 13 3 15 11 7 8 -8 20 -9 37 -2 13 5 40 7 58 3 28 -5 34 -11
34 -31 0 -17 4 -22 12 -17 17 11 172 4 176 -7 7 -17 22 -9 22 11 0 11 5 20 10
20 6 0 10 -9 10 -20 0 -11 5 -20 10 -20 6 0 10 5 10 11 0 7 15 9 43 5 88 -11
117 -19 117 -30 -1 -16 -25 -46 -39 -46 -6 0 -11 -9 -11 -20 0 -17 7 -20 40
-20 33 0 40 -3 40 -20 0 -14 7 -20 21 -20 17 0 20 -4 16 -23 -6 -21 -4 -22 38
-19 40 4 45 2 45 -16 0 -18 8 -21 68 -26 120 -9 172 -18 172 -27 0 -5 18 -9
40 -9 33 0 40 -3 40 -20 0 -11 2 -20 4 -20 2 0 13 -3 23 -6 15 -5 15 -4 3 5
-12 8 -7 11 21 11 33 0 36 -2 32 -24 -4 -20 0 -25 29 -31 18 -4 56 -8 83 -10
28 -1 58 -3 68 -4 12 -1 17 -10 17 -31 l0 -30 65 0 c52 0 69 -4 85 -20 12 -12
33 -20 55 -20 28 0 35 -4 35 -20 0 -13 7 -20 20 -20 13 0 20 -7 20 -20 0 -13
7 -20 20 -20 13 0 20 -7 20 -20 0 -13 7 -20 20 -20 13 0 20 -7 20 -20 0 -17 7
-20 40 -20 44 0 57 -23 18 -36 -19 -6 -20 -7 -4 -16 18 -10 56 -7 89 7 13 5
17 2 17 -14 0 -14 6 -21 20 -21 13 0 20 -7 20 -20 0 -18 7 -20 79 -20 54 0 81
-4 84 -12 4 -8 8 -4 12 10 8 23 20 28 30 12 3 -5 22 -10 41 -10 27 0 34 -4 34
-20 0 -13 -7 -20 -20 -20 -13 0 -20 -7 -20 -20 0 -13 7 -20 20 -20 13 0 20 -7
20 -20 0 -17 7 -20 39 -20 43 0 52 -11 44 -53 -4 -22 -2 -27 16 -27 14 0 21
-6 21 -20 0 -13 7 -20 20 -20 13 0 20 -7 20 -20 0 -13 7 -20 20 -20 11 0 20
-6 20 -14 0 -8 9 -18 20 -21 11 -3 20 -15 20 -25 0 -22 46 -36 66 -19 11 9 14
7 14 -15 0 -19 5 -26 20 -26 13 0 20 -7 20 -20 0 -13 7 -20 20 -20 13 0 20 -7
20 -20 0 -13 7 -20 20 -20 29 0 28 -56 -2 -81 -11 -11 -18 -22 -13 -27 4 -4
10 -1 12 6 5 14 33 17 33 3 0 -5 -6 -12 -12 -14 -7 -3 -1 -6 13 -6 21 -1 28
-7 33 -31 3 -18 12 -30 21 -30 8 0 15 -4 15 -10 0 -5 6 -7 14 -4 8 3 17 1 20
-4 3 -6 15 -8 26 -5 15 4 20 0 20 -16 0 -18 6 -21 40 -21 l40 0 0 -60 c0 -47
3 -60 15 -60 20 0 65 -29 65 -43 0 -5 -9 -2 -20 8 -11 10 -23 15 -27 12 -9
-10 18 -57 34 -57 7 0 13 -9 13 -20 0 -13 7 -20 20 -20 14 0 20 -7 20 -21 0
-13 4 -18 12 -13 8 5 9 2 5 -9 -3 -9 -2 -19 4 -22 5 -4 9 -3 8 2 -1 4 -1 15 0
23 1 16 31 -35 31 -52 0 -6 12 -21 26 -35 25 -23 25 -23 18 -1 -6 21 -6 21 11
5 10 -10 15 -21 11 -24 -10 -10 35 -53 56 -53 11 0 18 -7 18 -20 0 -13 7 -20
19 -20 22 0 34 -44 25 -90 -6 -26 -3 -30 14 -30 11 0 23 8 25 18 2 9 2 0 0
-20 -4 -33 -2 -38 16 -38 14 0 21 -6 21 -20 0 -13 7 -20 20 -20 21 0 28 -24
10 -35 -18 -11 -11 -30 18 -47 16 -9 28 -26 29 -39 3 -30 23 -79 34 -79 4 0 9
-19 11 -42 3 -39 6 -43 36 -49 48 -10 54 -22 7 -17 -22 3 -32 3 -23 1 10 -3
22 -21 28 -43 6 -22 15 -42 20 -45 6 -3 10 -22 10 -41 0 -21 6 -37 15 -40 8
-3 17 -14 20 -25 4 -10 15 -19 26 -19 12 0 19 -7 19 -20 0 -11 5 -20 12 -20 9
0 9 -3 0 -12 -18 -18 -14 -30 8 -23 28 9 76 -33 72 -62 -2 -16 2 -23 12 -23 9
0 16 -7 16 -15 0 -8 -5 -15 -11 -15 -5 0 -8 -4 -5 -9 3 -5 15 -7 26 -4 18 5
20 0 20 -36 0 -22 -4 -41 -10 -41 -5 0 -10 -9 -10 -20 0 -11 7 -20 15 -20 8 0
15 -8 16 -17 0 -10 2 -28 5 -41 4 -22 3 -22 -21 -6 -14 9 -28 14 -32 10 -3 -3
-2 -6 4 -6 5 0 21 -9 34 -21 l24 -21 6 44 c5 39 14 27 11 -14 -2 -18 22 -25
31 -10 2 4 2 1 0 -7 -2 -8 2 -18 9 -23 8 -5 1 -6 -17 -2 l-30 6 28 -25 c29
-26 36 -50 12 -41 -8 4 -15 1 -15 -5 0 -7 -14 -17 -31 -23 -19 -6 -28 -15 -25
-24 3 -9 0 -11 -11 -7 -11 4 -14 2 -9 -5 4 -7 14 -12 22 -12 8 0 19 -10 25
-22 9 -22 9 -21 4 4 -3 14 -8 33 -11 42 -3 9 -1 16 5 16 6 0 11 -8 11 -18 0
-10 5 -23 10 -28 6 -6 7 -20 3 -32 -4 -11 -6 -50 -5 -86 3 -56 7 -66 22 -66
24 0 28 -16 21 -77 -6 -46 -5 -53 13 -62 19 -10 19 -11 -4 -5 -23 6 -23 6 -7
-10 9 -10 21 -14 27 -11 5 3 10 -3 10 -14 0 -14 6 -21 20 -21 16 0 19 -8 22
-62 2 -52 6 -63 20 -62 9 1 14 -4 12 -11 -3 -7 2 -15 11 -19 9 -3 13 -11 9
-17 -5 -9 -11 -6 -21 6 -8 12 -16 15 -22 9 -12 -13 -21 -104 -10 -104 5 0 9
-6 9 -14 0 -8 5 -16 11 -18 6 -2 14 -27 17 -56 4 -47 3 -52 -15 -52 -21 0 -33
-32 -33 -91 0 -19 -5 -29 -15 -29 -11 0 -15 12 -16 43 l-2 42 -8 -45 c-12 -58
-11 -50 -6 -157 2 -51 9 -99 14 -105 6 -7 15 -26 22 -43 l11 -30 -5 35 c-3 19
-2 29 1 23 3 -7 19 -13 35 -13 16 0 29 -4 29 -10 0 -5 -11 -10 -25 -10 -20 0
-25 -5 -25 -25 0 -18 5 -25 20 -25 17 0 20 -7 20 -38 0 -26 -7 -45 -19 -56
-10 -10 -21 -33 -23 -52 -4 -31 -1 -34 22 -35 l25 -1 -25 -7 c-24 -6 -25 -10
-25 -76 0 -38 4 -73 8 -76 4 -3 3 -18 -3 -34 -8 -22 -8 -30 2 -37 11 -6 11
-10 0 -16 -10 -7 -10 -15 4 -39 15 -26 16 -33 3 -61 -8 -18 -19 -32 -26 -32
-15 0 -26 -71 -18 -120 4 -26 3 -40 -4 -40 -6 0 -12 10 -12 23 l-2 22 -4 -22
c-2 -13 -9 -23 -14 -23 -15 0 -10 -20 13 -53 12 -18 15 -26 8 -20 -21 19 -39
16 -37 -7 1 -13 7 -18 17 -15 8 2 22 0 30 -6 13 -9 12 -10 -2 -5 -36 11 -43
-1 -40 -69 3 -60 2 -65 -17 -65 -18 0 -21 -6 -21 -40 0 -22 -4 -40 -10 -40 -5
0 -10 -20 -10 -45 0 -32 -6 -51 -21 -66 -12 -12 -18 -27 -14 -36 3 -9 0 -20
-7 -25 -9 -5 -10 -10 -2 -15 6 -5 10 -21 10 -37 -1 -18 5 -31 14 -34 12 -3 12
-2 3 8 -9 10 -9 18 -1 33 7 15 7 22 -3 28 -12 7 -11 11 1 19 13 8 15 -4 18
-87 1 -53 -1 -100 -6 -105 -5 -5 -7 5 -4 22 3 23 0 30 -12 30 -9 0 -16 5 -16
10 0 6 8 10 17 10 15 0 14 2 -3 19 -10 10 -23 16 -29 13 -5 -3 -4 -7 3 -10 17
-5 15 -22 -3 -22 -8 0 -15 8 -15 17 0 9 -3 14 -6 10 -10 -9 6 -47 21 -47 12 0
23 -35 28 -95 2 -24 -2 -31 -21 -33 -12 -2 -20 -8 -17 -13 4 -5 1 -9 -6 -9 -8
0 -10 -15 -7 -50 4 -36 2 -50 -7 -50 -16 0 -26 -48 -11 -55 8 -3 7 -7 -1 -11
-7 -3 -13 -19 -13 -35 0 -19 -12 -42 -34 -66 -18 -21 -31 -43 -29 -49 2 -6 -6
-15 -19 -19 l-23 -8 23 -4 c29 -6 28 -23 -2 -23 -18 0 -24 -6 -25 -22 0 -13
-1 -36 -2 -53 0 -16 -3 -41 -6 -55 -5 -23 -6 -24 -13 -5 -5 12 -6 -2 -3 -32 5
-43 3 -54 -11 -59 -9 -3 -14 -10 -11 -15 3 -4 12 -6 19 -3 7 3 16 -2 19 -10 7
-19 -1 -46 -14 -46 -14 0 -11 18 4 23 6 2 9 8 5 12 -16 17 -35 -21 -30 -62 4
-39 2 -43 -17 -43 -18 0 -21 -6 -21 -40 0 -33 4 -40 19 -40 19 0 35 -23 24
-34 -4 -3 -15 -6 -25 -6 -11 0 -18 -7 -18 -20 0 -13 -7 -20 -20 -20 -13 0 -20
-7 -20 -20 0 -12 -7 -20 -16 -20 -9 0 -18 -9 -21 -20 -3 -11 -14 -20 -24 -20
-14 0 -19 -7 -19 -30 0 -17 -5 -40 -12 -53 -6 -12 -14 -29 -18 -37 -4 -8 -21
-16 -39 -18 -30 -3 -31 -5 -31 -53 0 -27 -4 -49 -10 -49 -5 0 -10 9 -10 20 0
11 -7 20 -15 20 -11 0 -15 -12 -15 -44 0 -25 -5 -48 -10 -51 -6 -3 -10 -1 -10
4 0 6 -16 11 -35 11 -34 0 -35 -1 -35 -40 0 -33 -3 -40 -20 -40 -13 0 -20 -7
-20 -20 0 -11 -4 -20 -10 -20 -5 0 -10 -18 -10 -40 0 -38 -2 -40 -30 -40 -31
0 -39 -17 -18 -38 9 -9 8 -13 -3 -17 -11 -4 -13 -24 -11 -95 4 -86 3 -90 -17
-90 -14 0 -21 -6 -21 -20 0 -11 -7 -20 -15 -20 -8 0 -15 -4 -15 -10 0 -5 -10
-10 -22 -10 -24 0 -63 -20 -40 -20 6 0 12 -9 12 -20 0 -13 -7 -20 -20 -20 -18
0 -20 -7 -20 -65 0 -41 -4 -65 -11 -65 -6 0 -9 -6 -6 -14 4 -10 0 -12 -14 -9
-10 3 -19 0 -19 -6 0 -6 -7 -11 -15 -11 -8 0 -15 -7 -15 -15 0 -8 -9 -15 -20
-15 -17 0 -20 -7 -20 -40 0 -33 -3 -40 -20 -40 -11 0 -20 6 -20 13 0 22 -20
-17 -20 -40 0 -13 -4 -23 -10 -23 -5 0 -10 -16 -10 -35 0 -29 -4 -35 -21 -35
-16 0 -20 -5 -17 -27 3 -25 -1 -28 -27 -31 -16 -2 -33 -9 -36 -14 -4 -6 -14
-8 -24 -5 -9 4 -13 12 -9 18 4 8 3 9 -4 5 -6 -4 -8 -14 -5 -23 4 -11 3 -14 -5
-9 -8 5 -12 -5 -12 -33 0 -29 5 -41 18 -44 9 -2 -1 -3 -23 -2 -35 2 -41 6 -46
31 l-7 29 -1 -33 c-1 -19 -5 -31 -11 -27 -6 4 -10 -6 -11 -22 0 -15 -3 -22 -6
-15 -2 6 -9 12 -14 12 -14 0 -11 -28 4 -33 6 -2 8 -8 4 -13 -4 -5 -12 -2 -16
5 -15 23 -51 -18 -51 -57 0 -18 -4 -31 -9 -28 -5 3 -12 -5 -15 -19 -5 -18 -13
-25 -31 -25 -17 0 -25 -6 -25 -18 0 -10 -13 -22 -30 -30 -16 -6 -43 -18 -60
-24 -17 -8 -30 -20 -30 -30 0 -14 -9 -18 -40 -18 -33 0 -40 -3 -40 -19 0 -11
6 -21 13 -24 6 -2 -12 -2 -40 1 -49 4 -53 3 -53 -17 0 -18 -6 -21 -40 -21 -33
0 -40 -3 -40 -20 0 -17 -7 -20 -40 -20 -33 0 -40 -3 -40 -20 0 -11 -4 -20 -10
-20 -5 0 -10 -8 -10 -17 -1 -36 -27 -54 -84 -60 -47 -5 -56 -9 -56 -25 0 -15
-4 -18 -17 -13 -40 17 -53 17 -59 1 -3 -9 -18 -17 -33 -17 -21 -1 -20 -3 9 -8
35 -6 35 -6 -22 -19 -54 -13 -79 -32 -41 -32 14 0 14 -3 5 -12 -10 -10 -15
-10 -23 2 -8 13 -11 13 -24 -4 -7 -10 -18 -15 -24 -11 -6 3 -11 -1 -11 -10 0
-13 -5 -15 -17 -9 -10 4 -46 10 -80 12 -48 3 -64 0 -68 -10 -6 -14 -31 -17
-50 -7 -19 11 -105 -3 -105 -16 0 -9 -25 -15 -80 -20 -69 -6 -80 -10 -80 -26
0 -15 -7 -19 -40 -19 -33 0 -40 -3 -40 -20 0 -18 -7 -20 -60 -20 -53 0 -60 -2
-60 -19 0 -11 8 -21 17 -23 9 -2 -27 -2 -80 -1 -71 1 -97 -2 -97 -11 0 -6 -23
-20 -51 -30 -40 -15 -56 -16 -75 -7 -33 15 -34 14 -34 -10 0 -16 -4 -19 -17
-13 -21 9 -42 8 -138 -5 -92 -12 -127 -21 -143 -38 -7 -7 -24 -13 -37 -13 -13
0 -27 -4 -30 -10 -3 -5 -27 -10 -52 -10 -36 0 -44 3 -39 15 3 9 0 15 -9 15 -8
0 -15 -6 -16 -12 0 -10 -2 -10 -6 0 -6 16 -30 16 -36 0 -4 -10 -8 -9 -17 2 -9
11 -13 12 -17 3 -7 -20 -229 -18 -267 2 -29 16 -135 35 -191 35 -23 0 -27 -3
-15 -10 11 -7 6 -8 -16 -4 -19 4 -34 1 -38 -5 -4 -6 -32 -11 -62 -11 -47 0
-54 2 -54 20 0 19 -7 20 -220 20 -213 0 -220 1 -220 20 0 13 -7 20 -20 20 -13
0 -20 7 -20 20 0 19 -7 20 -100 20 -93 0 -100 1 -100 20 0 18 -7 20 -87 21
-49 0 -82 3 -75 6 17 7 15 23 -3 23 -8 0 -15 5 -15 10 0 6 -7 10 -15 10 -8 0
-30 8 -50 17 -25 12 -35 23 -35 40 0 14 -6 23 -15 23 -8 0 -15 -4 -15 -10 0
-14 -68 -12 -72 2 -3 7 -11 -2 -19 -20 -7 -18 -17 -32 -20 -32 -7 0 -22 39
-20 51 0 9 -146 22 -158 15 -5 -4 -13 -1 -17 5 -4 8 -9 7 -16 -2 -6 -10 -7 -7
-3 9 7 23 -9 31 -19 10 -5 -10 -7 -10 -12 -1 -3 8 -15 11 -30 7 -17 -5 -24 -2
-24 9 0 10 -14 18 -40 22 -25 4 -40 12 -40 21 0 8 -7 14 -15 14 -8 0 -15 3
-15 8 0 4 -19 8 -41 9 -31 1 -46 8 -61 26 -17 21 -24 24 -39 14 -15 -9 -22 -7
-38 12 -11 12 -21 21 -23 20 -5 -4 -61 34 -79 53 -12 14 -32 18 -77 18 -73 0
-92 6 -92 30 0 22 -31 34 -60 25 -16 -5 -20 -2 -20 14 0 12 -7 21 -15 21 -8 0
-16 5 -16 10 -1 6 -2 15 -3 21 -1 15 -20 25 -78 41 -41 10 -48 16 -49 38 0 14
-3 19 -6 13 -2 -7 -9 -13 -14 -13 -14 0 -11 28 4 33 6 2 8 8 4 13 -4 5 -12 2
-18 -6 -7 -11 -11 -12 -17 -3 -4 7 -21 11 -37 10 -24 -2 -31 2 -33 20 -2 14 2
23 10 23 7 1 2 7 -12 15 -32 18 -40 18 -40 0 0 -9 -9 -15 -22 -15 -13 0 -40
-3 -60 -6 -36 -6 -38 -5 -38 20 0 24 -3 26 -40 26 -33 0 -40 3 -40 20 0 17 -7
20 -39 20 -29 0 -40 4 -43 17 -2 12 -14 18 -38 19 -19 1 -36 7 -38 13 -2 6
-12 11 -23 11 -10 0 -19 5 -19 11 0 6 -9 9 -20 6 -18 -5 -20 0 -20 54 0 47 3
59 16 59 8 0 12 5 9 10 -3 6 -15 10 -26 10 -27 0 -24 20 4 21 12 1 25 1 29 0
5 0 8 3 8 9 0 5 -7 10 -16 10 -15 0 -44 23 -44 34 0 3 9 6 20 6 11 0 20 5 20
10 0 6 -9 10 -20 10 -11 0 -20 5 -20 10 0 6 5 10 10 10 6 0 10 7 10 15 0 8 -9
15 -20 15 -15 0 -20 7 -20 25 0 14 -4 25 -10 25 -5 0 -10 7 -10 15 0 8 5 15
10 15 19 0 10 20 -12 25 -21 5 -23 10 -20 70 3 57 1 65 -14 65 -24 0 -64 39
-64 62 0 11 -7 18 -20 18 -11 0 -20 7 -20 15 0 8 -4 15 -9 15 -5 0 -23 3 -40
6 -25 5 -31 3 -31 -11 0 -15 -2 -15 -16 -4 -9 7 -20 23 -25 36 -5 13 -15 23
-24 23 -8 0 -15 8 -15 19 0 10 -9 21 -20 24 -11 3 -20 12 -20 21 0 9 -4 16
-10 16 -5 0 -10 18 -10 40 0 22 -4 40 -10 40 -5 0 -10 7 -10 15 0 8 5 15 10
15 21 0 9 20 -12 21 -16 1 -11 4 12 9 30 6 31 8 8 9 -41 2 -58 11 -58 32 0 12
-7 19 -20 19 -18 0 -20 7 -20 80 0 73 -2 80 -20 80 -18 0 -20 7 -20 60 0 53
-2 60 -20 60 -13 0 -20 7 -20 20 0 11 6 20 13 20 25 0 -18 20 -45 20 -21 0
-28 5 -28 19 0 13 -10 20 -32 25 -31 6 -32 7 -11 21 12 8 30 13 40 10 10 -3 1
3 -19 13 -34 15 -38 21 -38 55 0 30 -4 37 -19 37 -22 0 -34 33 -18 49 8 8 8
11 -1 11 -6 0 -15 -7 -20 -16 -8 -15 -10 -15 -15 0 -4 11 -3 15 4 10 7 -4 9 1
5 17 -3 13 -3 18 0 12 10 -22 24 -14 24 12 0 18 -5 25 -20 25 -18 0 -20 7 -20
60 0 53 -2 60 -20 60 -13 0 -20 7 -20 19 0 11 -5 21 -11 23 -9 3 -9 9 0 25 17
33 14 53 -9 53 -13 0 -20 7 -20 19 0 25 20 38 31 20 5 -8 9 -9 9 -4 0 6 -4 16
-9 24 -8 12 -12 12 -26 -2 -22 -23 -45 -21 -45 3 0 13 -7 20 -20 20 -17 0 -20
7 -20 40 0 33 -3 40 -20 40 -13 0 -20 7 -20 20 0 11 -4 20 -10 20 -5 0 -10 9
-10 20 0 11 5 20 10 20 6 0 10 9 10 20 0 13 -7 20 -20 20 -18 0 -20 7 -20 74
0 69 2 75 23 82 20 7 20 8 -11 16 -17 5 -32 15 -32 22 0 7 -6 19 -14 25 -11 9
-12 20 -5 44 11 39 11 37 -1 37 -5 0 -10 -8 -10 -17 0 -13 -3 -14 -11 -6 -9 9
-8 16 5 28 9 9 16 33 16 55 0 30 4 39 22 43 l22 6 -22 19 c-12 11 -22 27 -22
36 0 9 -4 16 -10 16 -5 0 -10 20 -10 45 0 25 -4 45 -10 45 -18 0 -11 20 8 20
15 1 15 2 -2 15 -20 15 -20 15 0 30 18 13 18 14 1 15 -13 0 -17 5 -13 18 5 13
-1 21 -21 29 l-28 12 30 -5 30 -4 -27 11 c-32 12 -37 39 -8 39 11 0 20 5 20
10 0 6 -13 10 -30 10 -16 0 -30 5 -30 10 0 6 14 10 30 10 17 0 30 5 30 10 0 6
-8 10 -19 10 -15 0 -18 8 -18 39 0 33 3 38 18 34 14 -4 19 0 19 16 0 11 5 21
10 21 7 0 7 6 0 19 -5 11 -10 38 -10 60 0 36 -3 41 -22 41 -19 0 -20 2 -8 10
11 7 7 10 -20 11 l-35 2 35 7 c19 4 29 8 23 9 -7 0 -13 10 -13 21 0 11 -4 20
-10 20 -5 0 -10 9 -10 20 0 11 -4 20 -9 20 -5 0 -11 20 -13 45 -2 31 1 45 9
45 7 0 13 -4 13 -10 0 -5 5 -10 10 -10 6 0 5 8 -2 20 -7 11 -19 20 -26 20 -7
0 -10 5 -7 10 4 6 11 8 16 5 5 -4 9 12 9 34 0 21 4 41 8 43 12 4 25 58 14 58
-4 0 -6 32 -4 70 4 66 3 70 -17 70 -19 0 -21 6 -21 60 0 57 -1 60 -25 60 -27
0 -35 16 -10 22 13 3 13 6 0 32 -13 24 -13 31 -3 38 10 6 10 10 1 16 -18 12
-4 52 18 52 22 0 23 31 10 173 -6 72 -5 80 14 94 19 14 18 15 -15 9 -31 -6
-32 -5 -16 7 17 12 18 25 14 125 -4 103 -3 112 14 112 19 0 26 36 7 42 -5 2
-7 11 -3 21 4 12 13 16 25 12 11 -4 19 -2 19 4 0 6 -4 11 -10 11 -5 0 -10 5
-10 10 0 6 7 10 15 10 13 0 13 3 3 21 -10 17 -10 23 0 26 6 3 12 13 12 24 0
10 5 19 10 19 6 0 10 53 10 140 0 138 0 140 23 141 12 0 16 3 9 6 -21 8 -13
20 21 28 28 7 29 9 10 12 -19 4 -23 11 -23 39 0 19 5 34 10 34 6 0 10 18 10
40 0 22 5 40 10 40 6 0 10 15 10 34 0 26 5 36 20 41 11 3 20 15 20 26 0 10 5
19 10 19 6 0 10 14 10 30 0 17 5 30 10 30 6 0 10 30 10 70 0 63 2 70 20 70 15
0 20 7 20 25 0 14 -6 25 -12 26 -7 1 -2 5 12 9 17 5 19 8 8 9 -26 1 -22 19 5
24 14 3 12 4 -6 2 -15 -1 -31 3 -34 8 -3 6 -2 8 3 4 5 -3 18 1 29 9 11 8 13
14 6 14 -9 0 -12 12 -9 40 2 22 0 40 -4 40 -19 0 -6 20 17 26 16 4 25 13 25
25 0 10 4 19 9 19 5 0 11 30 13 66 4 58 8 70 31 89 27 20 28 25 28 113 0 84 2
92 20 92 16 0 19 7 19 40 0 33 3 40 20 40 17 0 20 7 20 45 0 29 -4 45 -12 46
-7 1 -2 5 12 9 l25 8 -25 2 c-23 2 -22 3 8 11 28 8 32 14 32 44 0 28 4 35 20
35 17 0 20 7 20 40 0 33 3 40 20 40 13 0 20 7 20 20 0 13 7 20 20 20 12 0 17
5 14 14 -3 8 -1 17 4 20 6 3 8 15 5 26 -4 13 2 29 16 44 12 12 24 42 27 69 7
46 17 60 27 35 3 -7 6 4 6 25 1 42 11 55 56 80 27 15 28 16 8 17 -29 0 -31 30
-3 30 13 0 20 7 20 20 0 17 7 20 40 20 33 0 40 3 40 20 0 16 10 21 52 27 l53
8 -45 6 c-37 5 -40 6 -12 7 27 2 32 6 32 27 0 19 5 25 21 25 17 0 20 5 17 25
-5 22 -2 24 18 19 19 -5 24 -1 30 20 7 29 24 35 24 9 0 -13 3 -14 12 -5 7 7
27 12 45 12 32 0 33 1 33 40 0 40 0 40 39 40 30 0 40 4 44 20 4 15 14 20 40
20 27 0 37 5 42 20 3 11 13 20 21 20 8 0 17 13 20 30 7 31 19 39 27 18 3 -7 6
-1 6 14 1 17 8 29 21 33 11 3 20 11 20 16 0 5 9 9 20 9 26 0 25 18 -3 43 -18
16 -18 19 -4 14 45 -17 67 -19 67 -7 0 14 25 40 39 40 6 0 11 5 11 10 0 6 -5
10 -11 10 -14 0 -39 25 -39 39 0 6 18 11 40 11 l40 0 0 40 c0 33 3 40 19 40
26 0 37 -19 20 -32 -11 -7 -9 -8 5 -4 11 4 23 1 29 -6 9 -13 6 -1 -8 35 -6 16
12 44 22 33 4 -5 2 -11 -4 -13 -16 -6 -17 -23 -2 -23 6 0 17 7 25 15 9 8 30
14 47 14 l32 -2 -35 -6 c-20 -4 -30 -9 -24 -14 16 -10 74 3 74 17 1 6 7 25 14
41 l14 30 -1 -30 c-2 -21 3 -30 16 -33 9 -2 17 1 17 7 0 6 -7 11 -16 11 -9 0
-14 6 -11 13 2 6 14 11 25 9 12 -2 22 2 22 7 0 6 9 11 20 11 13 0 20 7 20 20
0 17 7 20 40 20 33 0 40 3 40 20 0 13 7 20 18 20 10 0 24 9 32 20 8 11 21 20
30 20 9 0 22 9 30 20 8 11 22 20 32 20 11 0 18 7 18 20 0 21 29 29 31 8 0 -10
2 -10 6 0 2 6 14 12 26 12 18 0 19 2 7 10 -11 7 -7 10 20 11 l35 2 -35 7 c-30
6 -31 8 -10 10 14 2 41 2 60 1 24 -1 31 1 22 7 -11 7 -7 11 13 16 15 4 30 5
33 1 3 -3 -3 -5 -13 -5 -24 0 -17 -6 18 -14 22 -5 27 -3 27 13 0 18 39 37 68
32 6 -1 12 5 12 14 0 17 13 19 40 5 14 -8 19 -5 24 13 4 17 8 19 18 9 18 -18
38 -14 38 8 0 17 7 20 40 20 22 0 40 5 40 10 0 6 15 10 33 10 47 0 77 10 77
26 0 10 -7 13 -25 8 -16 -4 -25 -2 -25 6 0 7 7 10 15 6 9 -3 15 0 15 9 0 8 5
15 10 15 6 0 10 -7 10 -15 0 -8 5 -15 10 -15 6 0 10 5 10 10 0 6 16 10 35 10
28 0 35 4 35 20 0 13 7 20 20 20 29 0 25 34 -6 59 -42 33 -6 37 68 7 78 -31
78 -31 78 -6 0 11 6 20 14 20 8 0 16 6 19 13 2 6 9 -4 15 -23 l10 -35 2 35 2
35 13 -30 c9 -19 14 -24 15 -12 0 13 9 17 39 17 22 0 46 -7 54 -15 17 -17 28
-10 19 13 -4 11 4 7 19 -8 22 -22 32 -25 75 -21 l49 5 -45 6 -45 5 34 8 c18 4
51 7 72 7 32 0 39 3 39 20 0 13 7 20 20 20 17 0 20 7 20 40 0 33 4 40 19 40
21 0 37 40 20 51 -7 4 -4 9 6 13 21 8 36 -1 29 -18 -3 -7 1 -16 9 -19 10 -4
17 2 21 15 4 17 8 19 19 10 8 -7 27 -9 46 -6 19 4 31 2 31 -4 0 -6 -12 -13
-27 -15 -21 -3 -18 -4 12 -6 30 -1 36 -4 25 -11 -8 -5 -23 -7 -32 -4 -10 3
-18 0 -18 -7 0 -8 10 -9 31 -5 17 3 62 6 100 6 63 0 69 2 69 21 0 19 5 20 99
18 54 -1 104 2 111 6 9 6 11 -1 6 -26 l-7 -34 15 31 14 31 56 -9 c37 -5 63 -5
76 2 23 12 63 13 76 1 14 -14 114 -1 114 14 0 8 6 16 13 19 10 5 10 7 0 12 -7
3 -13 10 -13 15 0 13 18 11 22 -2z"/>
<path d="M4930 8334 c-197 -37 -446 -132 -597 -230 -117 -75 -135 -88 -200
-148 -203 -186 -361 -444 -437 -716 -45 -161 -56 -242 -56 -401 0 -165 15
-281 61 -461 16 -64 29 -132 29 -150 0 -24 3 -29 10 -18 7 12 12 7 25 -22 8
-21 15 -42 15 -48 0 -6 18 -49 40 -96 22 -47 40 -88 40 -90 0 -5 115 -177 214
-321 46 -67 82 -124 78 -127 -3 -3 -30 -6 -60 -6 l-55 0 37 -25 c20 -14 46
-25 57 -25 11 0 17 -4 14 -10 -3 -6 1 -7 9 -4 9 3 16 10 16 15 0 6 8 5 19 -1
24 -12 117 -130 113 -142 -1 -5 2 -7 6 -4 5 3 16 -2 24 -12 25 -29 29 -40 17
-48 -8 -4 -9 -3 -5 4 6 9 -40 42 -59 42 -3 0 -5 -21 -5 -47 0 -44 -1 -46 -15
-27 -10 11 -8 3 4 -23 21 -42 41 -64 41 -44 0 6 9 11 20 11 12 0 20 -6 19 -12
-2 -13 0 -19 24 -83 7 -16 12 -37 12 -45 0 -8 10 -19 23 -25 12 -5 22 -17 22
-25 0 -13 1 -13 10 0 8 12 10 12 10 1 0 -15 115 -131 130 -131 5 0 39 14 77
32 37 17 73 31 78 31 6 0 58 -33 117 -73 l106 -73 -102 -49 c-55 -27 -103 -52
-105 -54 -3 -3 6 -15 19 -27 13 -12 18 -14 10 -4 -26 34 -2 27 41 -14 24 -22
59 -52 77 -66 17 -14 32 -31 32 -38 0 -7 3 -15 8 -18 4 -2 1 -2 -5 -1 -20 5
-15 -10 10 -32 89 -77 155 -128 184 -142 l33 -16 0 -408 0 -409 88 -41 c48
-22 137 -60 197 -83 61 -24 193 -80 295 -125 250 -111 378 -159 468 -176 41
-8 76 -13 78 -12 1 2 4 391 5 866 l3 864 -115 60 c-99 52 -410 198 -447 209
-7 2 28 44 81 97 81 81 97 92 113 83 53 -30 325 -141 434 -178 124 -41 238
-89 360 -151 74 -37 162 -76 195 -86 83 -26 294 -110 368 -147 91 -46 237
-101 253 -95 12 5 14 121 14 715 0 462 -3 712 -10 716 -6 4 -10 -12 -10 -40 0
-28 -4 -44 -10 -40 -5 3 -10 -3 -10 -14 0 -17 -6 -21 -35 -21 -28 0 -35 -4
-35 -20 0 -13 -7 -20 -20 -20 -13 0 -20 -7 -20 -19 0 -23 -26 -31 -102 -31
-35 0 -59 -5 -62 -12 -5 -10 -7 -10 -12 0 -8 17 -24 15 -24 -3 0 -8 -9 -15
-20 -15 -11 0 -20 5 -20 10 0 6 5 10 12 10 6 0 3 6 -7 14 -11 8 -27 13 -37 11
-12 -3 -15 1 -11 12 4 10 2 14 -4 10 -12 -8 -59 81 -99 188 -29 78 -86 195
-114 235 -17 24 -17 27 -2 37 9 7 13 12 7 12 -5 1 -50 -26 -100 -60 -124 -83
-330 -188 -321 -163 4 11 18 48 31 84 13 36 38 111 55 168 l31 104 47 19 c26
11 63 27 83 36 l36 15 -18 49 c-11 27 -19 59 -19 72 0 12 -6 32 -14 43 -8 11
-14 34 -14 50 1 16 -6 42 -14 58 l-15 29 -8 -44 c-7 -38 -10 -28 -16 76 -8
145 -22 240 -54 368 -82 333 -310 660 -605 869 -85 61 -307 171 -395 197 -249
74 -488 98 -665 65z m455 -178 c253 -54 515 -193 679 -360 78 -79 205 -250
194 -261 -10 -11 -33 6 -48 35 -8 16 -62 80 -120 142 -136 144 -281 241 -496
329 -120 48 -198 66 -336 75 l-105 7 -7 -117 c-7 -119 -26 -186 -53 -186 -7 0
-15 -11 -19 -25 -4 -18 -13 -25 -30 -25 -13 0 -24 5 -24 10 0 13 -50 13 -70 0
-11 -7 -6 -10 20 -11 30 -1 26 -3 -25 -15 -33 -8 -73 -20 -90 -28 -72 -31
-165 -80 -165 -86 0 -4 -12 -12 -27 -19 -72 -32 -228 -164 -217 -183 3 -4 1
-8 -5 -8 -5 0 -19 -16 -31 -35 -13 -21 -32 -37 -48 -40 -94 -19 -148 -54 -132
-86 8 -15 4 -18 -30 -24 -30 -5 -40 -11 -40 -26 0 -10 -4 -19 -10 -19 -5 0
-10 -9 -10 -20 0 -11 -4 -20 -9 -20 -5 0 -11 -9 -14 -20 -4 -17 -14 -20 -61
-20 -43 0 -56 3 -56 15 0 8 -7 15 -15 15 -8 0 -15 -7 -15 -15 0 -8 7 -15 15
-15 8 0 15 -7 15 -15 0 -8 -6 -15 -14 -15 -8 0 -20 -2 -28 -5 -21 -8 -42 12
-44 42 0 16 -6 28 -14 28 -17 0 -46 -106 -61 -225 -25 -202 -28 -205 -24 -30
4 190 17 266 65 398 45 123 100 225 184 343 211 296 538 479 941 528 103 13
290 6 380 -13z m-49 -621 c113 -35 197 -88 289 -180 65 -64 90 -99 128 -175
58 -116 77 -200 77 -350 0 -132 -14 -201 -64 -305 -92 -195 -268 -339 -481
-394 -67 -18 -223 -13 -309 9 -238 60 -441 258 -505 490 -80 285 -25 535 158
716 198 197 461 268 707 189z m659 -918 c-9 -45 -23 -95 -30 -112 -7 -16 -22
-51 -33 -76 -25 -60 -116 -181 -184 -245 -200 -189 -358 -254 -633 -257 -227
-4 -482 110 -629 281 -139 160 -196 275 -209 422 l-6 65 30 -89 c67 -203 178
-371 310 -470 74 -56 192 -113 309 -151 74 -24 101 -28 210 -28 69 0 147 5
174 12 214 52 424 197 542 374 56 82 128 250 146 340 8 37 14 53 16 39 2 -13
-4 -60 -13 -105z"/>
<path d="M4990 8092 c0 -5 -26 -12 -58 -16 -31 -4 -70 -13 -86 -21 -15 -8 -34
-15 -41 -15 -17 0 -84 -42 -85 -52 0 -5 9 -8 21 -8 33 0 56 -17 68 -51 18 -51
13 -70 -25 -105 -23 -22 -30 -34 -20 -34 9 0 16 5 16 12 0 6 3 8 7 5 3 -4 19
11 33 34 22 33 26 48 23 83 -4 35 -1 47 18 67 29 30 71 49 108 49 23 0 30 5
33 25 3 14 1 28 -3 31 -5 3 -9 1 -9 -4z"/>
<path d="M6506 4678 c-5 -23 -21 -674 -21 -823 1 -353 9 -785 14 -794 5 -7 58
3 159 29 259 66 419 157 586 330 173 181 269 385 305 653 21 152 13 214 -28
223 -34 7 -133 43 -251 92 -52 22 -203 83 -335 136 -132 54 -275 115 -317 137
-90 45 -106 47 -112 17z"/>
<path d="M2716 4265 c3 -160 26 -325 51 -370 7 -11 24 -6 90 25 81 40 105 57
78 57 -8 0 -15 -4 -15 -9 0 -4 -8 -8 -19 -8 -10 0 -24 -7 -31 -15 -7 -8 -16
-13 -20 -10 -5 3 -11 1 -15 -5 -3 -5 -15 -10 -26 -10 -11 0 -17 -4 -14 -10 3
-5 2 -10 -4 -10 -18 0 -21 18 -6 34 12 12 13 20 5 35 -7 13 -7 22 0 26 5 3 10
33 10 66 0 56 -1 59 -25 59 -37 0 -48 35 -56 185 -6 120 -6 117 -3 -40z"/>
<path d="M3735 4115 c-91 -47 -426 -230 -550 -300 -60 -35 -123 -70 -140 -78
-26 -14 -27 -16 -7 -14 12 1 22 4 22 8 0 6 45 29 57 29 3 0 3 -6 0 -14 -3 -7
0 -19 6 -25 8 -8 6 -11 -8 -12 -11 0 -29 -3 -40 -5 -11 -3 -25 -6 -32 -6 -6
-1 -9 -7 -6 -15 3 -7 -2 -13 -11 -13 -9 0 -16 -4 -16 -10 0 -13 -41 -39 -80
-50 -27 -8 -31 -7 -26 6 3 8 1 12 -4 9 -6 -3 -7 1 -4 9 3 9 11 13 18 9 6 -3 8
-2 4 2 -5 5 15 21 42 37 74 42 61 43 -24 1 l-74 -36 52 -81 c60 -95 173 -217
265 -286 81 -61 218 -133 313 -166 125 -43 278 -69 264 -45 -4 5 -2 11 4 13
10 3 18 35 19 78 1 20 3 22 11 10 6 -10 9 44 8 160 -1 96 -3 149 -5 118 -2
-32 -8 -58 -13 -58 -6 0 -10 9 -10 21 0 36 -31 89 -51 89 -11 0 -19 7 -19 16
0 20 -24 44 -44 44 -9 0 -16 8 -16 20 0 16 -7 20 -33 20 -32 0 -32 1 -29 40 3
25 0 40 -7 40 -6 0 -11 -9 -11 -20 0 -13 -7 -20 -20 -20 -19 0 -20 7 -20 119
l0 119 -35 4 c-63 7 -105 -2 -105 -23 0 -12 -7 -19 -19 -19 -11 0 -21 -6 -24
-12 -6 -16 -30 3 -33 26 -2 14 52 44 69 38 5 -1 5 3 1 9 -5 9 -2 10 10 6 9 -4
15 -3 12 1 -7 12 63 44 76 36 6 -4 8 -2 5 3 -4 6 42 37 106 73 164 90 163 90
185 90 16 0 41 28 30 34 -2 1 -30 -12 -63 -29z"/>
<path d="M7862 3933 c-13 -65 -33 -145 -44 -178 -32 -99 -154 -337 -210 -411
-80 -107 -282 -302 -378 -366 -158 -105 -383 -191 -587 -224 -115 -18 -512
-21 -618 -4 -70 11 -146 39 -175 64 -8 8 -99 57 -203 110 -103 52 -200 104
-215 114 -15 11 -86 49 -159 86 l-131 66 -34 -19 c-18 -11 -54 -27 -78 -36
-25 -9 -146 -69 -270 -134 -124 -65 -274 -144 -334 -175 -154 -81 -208 -91
-486 -91 -198 0 -238 3 -330 23 -162 36 -234 61 -381 134 -201 99 -340 208
-483 380 -155 185 -249 362 -321 605 -32 108 -35 113 -29 58 8 -87 67 -318
103 -410 127 -319 404 -596 749 -748 114 -51 185 -75 342 -114 112 -27 121
-28 370 -27 140 1 305 7 365 13 253 27 403 30 975 20 322 -5 626 -14 675 -19
50 -5 187 -12 305 -16 213 -6 217 -6 385 25 211 39 268 57 418 132 158 79 220
122 372 258 163 146 313 384 378 601 40 133 58 238 55 323 l-3 77 -23 -117z"/>
<path d="M5515 1619 c-181 -4 -550 -10 -820 -13 -552 -7 -716 -12 -836 -27
-46 -6 -90 -11 -96 -11 -7 -1 -13 -4 -13 -8 0 -3 -33 -4 -72 -1 -78 5 -144 6
-275 3 -76 -2 -83 -4 -83 -22 0 -22 -37 -28 -70 -10 -30 16 -50 2 -50 -36 0
-27 4 -34 20 -34 11 0 20 -4 20 -10 0 -5 18 -10 40 -10 22 0 40 -4 40 -9 0 -5
46 -12 103 -16 56 -4 108 -12 114 -17 18 -15 93 -19 116 -6 14 7 22 7 26 -1
11 -17 213 -40 408 -46 98 -3 257 -12 353 -19 209 -16 148 -14 580 -22 399 -7
985 9 1135 31 52 8 193 17 312 20 120 4 245 11 278 16 33 5 94 9 135 9 41 1
109 5 150 11 41 5 114 10 163 10 48 0 87 4 87 9 0 4 26 10 58 13 180 19 224
25 235 36 6 6 19 11 29 11 16 0 17 3 6 23 -7 12 -14 23 -14 25 -5 10 -170 25
-295 27 -84 1 -154 7 -167 14 -11 6 -45 11 -75 11 -30 0 -79 5 -108 11 -30 6
-90 12 -134 14 -616 29 -819 33 -1300 24z"/>
</g>
</svg>
